<?xml version="1.0" encoding="UTF-8" standalone="no"?>
<!DOCTYPE svg PUBLIC "-//W3C//DTD SVG 1.1//EN" "http://www.w3.org/Graphics/SVG/1.1/DTD/svg11.dtd">
<svg width="100%" height="100%" viewBox="0 0 2481 3508" version="1.1" xmlns="http://www.w3.org/2000/svg" xmlns:xlink="http://www.w3.org/1999/xlink" xml:space="preserve" xmlns:serif="http://www.serif.com/" style="fill-rule:evenodd;clip-rule:evenodd;stroke-linejoin:round;stroke-miterlimit:1.41421;">
    <g>
        <text x="76.04px" y="1006.68px" style="font-family:'Electrolize-Regular', 'Electrolize';font-size:879.135px;fill:rgb(87,226,198);">FExM</text>
        <path d="M539.462,391.29L539.462,452.829L522.641,469.65L254.622,469.65L254.622,647.001L473.409,647.001L490.23,663.822L490.23,725.361L473.409,742.182L254.622,742.182L254.622,1006.68L237.801,1023.5L163.954,1023.5L147.133,1006.68L147.133,391.29L163.954,374.469L522.641,374.469L539.462,391.29ZM163.954,391.29L163.954,1006.68L237.801,1006.68L237.801,725.361L473.409,725.361L473.409,663.822L237.801,663.822L237.801,452.829L522.641,452.829L522.641,391.29L163.954,391.29Z" style="fill:rgb(221,221,221);"/>
        <path d="M1078.37,391.29L1078.37,452.829L1061.55,469.65L758.366,469.65L758.366,647.001L1012.32,647.001L1029.14,663.822L1029.14,725.361L1012.32,742.182L758.366,742.182L758.366,928.324L1061.55,928.324L1078.37,945.145L1078.37,1006.68L1061.55,1023.5L667.698,1023.5L650.877,1006.68L650.877,391.29L667.698,374.469L1061.55,374.469L1078.37,391.29ZM667.698,391.29L667.698,1006.68L1061.55,1006.68L1061.55,945.145L741.545,945.145L741.545,725.361L1012.32,725.361L1012.32,663.822L741.545,663.822L741.545,452.829L1061.55,452.829L1061.55,391.29L667.698,391.29Z" style="fill:rgb(221,221,221);"/>
        <path d="M1259.34,557.873L1344.63,687.547L1429.92,557.873L1443.97,550.296L1520.46,550.296L1534.55,576.298L1402.52,778.981L1545.1,997.492L1531.01,1023.5L1454.52,1023.5L1440.45,1015.9L1344.63,869.557L1248.81,1015.9L1234.74,1023.5L1158.26,1023.5L1144.17,997.492L1286.75,778.981L1154.71,576.298L1168.81,550.296L1245.29,550.296L1259.34,557.873ZM1168.81,567.117L1306.83,778.988L1158.26,1006.68L1234.74,1006.68L1331.44,858.99L1331.8,858.442L1332.15,857.899L1332.49,857.361L1332.83,856.826L1333.16,856.296L1333.49,855.77L1333.81,855.249L1334.12,854.731L1334.43,854.218L1334.74,853.71L1335.04,853.205L1335.33,852.705L1335.62,852.209L1335.9,851.718L1336.17,851.231L1336.44,850.748L1336.71,850.269L1336.97,849.795L1337.22,849.325L1337.47,848.859L1337.71,848.398L1337.95,847.94L1338.07,847.713L1338.18,847.488L1338.3,847.263L1338.41,847.039L1338.52,846.816L1338.63,846.595L1338.74,846.374L1338.85,846.155L1338.95,845.936L1339.05,845.719L1339.16,845.503L1339.26,845.288L1339.36,845.073L1339.46,844.86L1339.55,844.649L1339.65,844.438L1339.74,844.228L1339.84,844.019L1339.93,843.811L1340.02,843.605L1340.11,843.399L1340.19,843.195L1340.28,842.992L1340.36,842.789L1340.45,842.588L1340.53,842.388L1340.61,842.189L1340.69,841.991L1340.76,841.794L1340.84,841.598L1340.91,841.403L1340.99,841.21L1341.06,841.017L1341.13,840.825L1341.2,840.635L1341.27,840.445L1341.33,840.257L1341.4,840.07L1341.46,839.884L1341.52,839.699L1341.58,839.514L1341.64,839.332L1341.7,839.15L1341.76,838.969L1341.81,838.789L1341.87,838.61L1341.92,838.433L1341.97,838.256L1342.02,838.081L1342.07,837.906L1342.11,837.733L1342.16,837.561L1342.2,837.39L1342.25,837.22L1342.29,837.051L1342.33,836.883L1342.37,836.716L1342.4,836.55L1342.44,836.385L1342.47,836.221L1342.51,836.059L1342.54,835.897L1342.57,835.737L1342.6,835.578L1342.62,835.419L1342.65,835.262L1342.67,835.106L1342.69,834.951L1342.72,834.797L1342.74,834.644L1342.76,834.492L1342.77,834.341L1342.79,834.192L1342.8,834.043L1342.82,833.895L1342.83,833.749L1342.84,833.604L1342.85,833.459L1342.86,833.316L1342.86,833.174L1342.87,833.033L1342.87,832.893L1342.87,832.754L1342.87,832.616L1346.39,832.616L1346.39,832.754L1346.39,832.893L1346.4,833.033L1346.4,833.174L1346.41,833.316L1346.42,833.459L1346.42,833.604L1346.43,833.749L1346.45,833.895L1346.46,834.043L1346.48,834.192L1346.49,834.341L1346.51,834.492L1346.53,834.644L1346.55,834.797L1346.57,834.951L1346.59,835.106L1346.62,835.262L1346.64,835.419L1346.67,835.578L1346.7,835.737L1346.73,835.897L1346.76,836.059L1346.79,836.221L1346.83,836.385L1346.86,836.55L1346.9,836.716L1346.94,836.883L1346.98,837.051L1347.02,837.22L1347.06,837.39L1347.11,837.561L1347.15,837.733L1347.2,837.906L1347.25,838.081L1347.29,838.256L1347.35,838.433L1347.4,838.61L1347.45,838.789L1347.51,838.969L1347.56,839.15L1347.62,839.332L1347.68,839.514L1347.74,839.699L1347.8,839.884L1347.87,840.07L1347.93,840.257L1348,840.445L1348.07,840.635L1348.13,840.825L1348.2,841.017L1348.28,841.21L1348.35,841.403L1348.42,841.598L1348.5,841.794L1348.58,841.991L1348.66,842.189L1348.74,842.388L1348.82,842.588L1348.9,842.789L1348.99,842.992L1349.07,843.195L1349.16,843.399L1349.25,843.605L1349.34,843.811L1349.43,844.019L1349.52,844.228L1349.62,844.438L1349.71,844.649L1349.81,844.86L1349.91,845.073L1350.01,845.288L1350.11,845.503L1350.21,845.719L1350.31,845.936L1350.42,846.155L1350.53,846.374L1350.63,846.595L1350.74,846.816L1350.86,847.039L1350.97,847.263L1351.08,847.488L1351.2,847.713L1351.31,847.94L1351.55,848.398L1351.79,848.859L1352.04,849.325L1352.3,849.795L1352.55,850.269L1352.82,850.748L1353.09,851.231L1353.37,851.718L1353.65,852.209L1353.93,852.705L1354.23,853.205L1354.53,853.71L1354.83,854.218L1355.14,854.731L1355.46,855.249L1355.78,855.77L1356.1,856.296L1356.43,856.826L1356.77,857.361L1357.12,857.899L1357.46,858.442L1357.82,858.99L1454.52,1006.68L1531.01,1006.68L1382.43,778.988L1520.46,567.117L1443.97,567.117L1357.82,698.108L1357.46,698.628L1357.12,699.146L1356.77,699.66L1356.6,699.917L1356.43,700.172L1356.27,700.426L1356.1,700.68L1355.94,700.933L1355.78,701.186L1355.62,701.437L1355.46,701.688L1355.3,701.938L1355.14,702.188L1354.99,702.436L1354.83,702.684L1354.68,702.931L1354.53,703.178L1354.38,703.423L1354.23,703.668L1354.08,703.912L1353.93,704.155L1353.79,704.398L1353.65,704.64L1353.51,704.881L1353.37,705.121L1353.23,705.361L1353.09,705.6L1352.95,705.838L1352.82,706.075L1352.69,706.312L1352.55,706.548L1352.42,706.783L1352.3,707.017L1352.17,707.251L1352.04,707.483L1351.92,707.715L1351.79,707.947L1351.67,708.177L1351.55,708.407L1351.43,708.636L1351.31,708.865L1351.2,709.092L1351.08,709.319L1350.97,709.545L1350.86,709.77L1350.74,709.995L1350.63,710.219L1350.53,710.442L1350.42,710.664L1350.31,710.886L1350.21,711.106L1350.11,711.326L1350.01,711.546L1349.91,711.764L1349.81,711.982L1349.71,712.199L1349.62,712.415L1349.52,712.631L1349.43,712.846L1349.34,713.06L1349.25,713.273L1349.16,713.486L1349.07,713.697L1348.99,713.908L1348.9,714.119L1348.82,714.328L1348.74,714.537L1348.66,714.745L1348.58,714.952L1348.5,715.159L1348.42,715.365L1348.35,715.57L1348.28,715.774L1348.2,715.977L1348.13,716.18L1348.07,716.382L1348,716.584L1347.93,716.784L1347.87,716.984L1347.8,717.183L1347.74,717.381L1347.68,717.579L1347.62,717.775L1347.56,717.971L1347.51,718.167L1347.45,718.361L1347.4,718.555L1347.35,718.748L1347.29,718.94L1347.25,719.132L1347.2,719.322L1347.15,719.512L1347.11,719.702L1347.06,719.89L1347.02,720.078L1346.98,720.265L1346.94,720.451L1346.9,720.637L1346.86,720.821L1346.83,721.005L1346.79,721.189L1346.76,721.371L1346.73,721.553L1346.7,721.734L1346.67,721.914L1346.64,722.094L1346.62,722.272L1346.59,722.45L1346.57,722.628L1346.55,722.804L1346.53,722.98L1346.51,723.155L1346.49,723.329L1346.48,723.503L1346.46,723.675L1346.45,723.847L1346.43,724.018L1346.42,724.189L1346.42,724.359L1346.41,724.528L1346.4,724.696L1346.4,724.863L1346.39,725.03L1346.39,725.196L1346.39,725.361L1342.87,725.361L1342.87,725.196L1342.87,725.03L1342.87,724.863L1342.86,724.696L1342.86,724.528L1342.85,724.359L1342.84,724.189L1342.83,724.018L1342.82,723.847L1342.8,723.675L1342.79,723.503L1342.77,723.329L1342.76,723.155L1342.74,722.98L1342.72,722.804L1342.69,722.628L1342.67,722.45L1342.65,722.272L1342.62,722.094L1342.6,721.914L1342.57,721.734L1342.54,721.553L1342.51,721.371L1342.47,721.189L1342.44,721.005L1342.4,720.821L1342.37,720.637L1342.33,720.451L1342.29,720.265L1342.25,720.078L1342.2,719.89L1342.16,719.702L1342.11,719.512L1342.07,719.322L1342.02,719.132L1341.97,718.94L1341.92,718.748L1341.87,718.555L1341.81,718.361L1341.76,718.167L1341.7,717.971L1341.64,717.775L1341.58,717.579L1341.52,717.381L1341.46,717.183L1341.4,716.984L1341.33,716.784L1341.27,716.584L1341.2,716.382L1341.13,716.18L1341.06,715.977L1340.99,715.774L1340.91,715.57L1340.84,715.365L1340.76,715.159L1340.69,714.952L1340.61,714.745L1340.53,714.537L1340.45,714.328L1340.36,714.119L1340.28,713.908L1340.19,713.697L1340.11,713.486L1340.02,713.273L1339.93,713.06L1339.84,712.846L1339.74,712.631L1339.65,712.415L1339.55,712.199L1339.46,711.982L1339.36,711.764L1339.26,711.546L1339.16,711.326L1339.05,711.106L1338.95,710.886L1338.85,710.664L1338.74,710.442L1338.63,710.219L1338.52,709.995L1338.41,709.77L1338.3,709.545L1338.18,709.319L1338.07,709.092L1337.95,708.865L1337.83,708.636L1337.71,708.407L1337.59,708.177L1337.47,707.947L1337.35,707.715L1337.22,707.483L1337.1,707.251L1336.97,707.017L1336.84,706.783L1336.71,706.548L1336.58,706.312L1336.44,706.075L1336.31,705.838L1336.17,705.6L1336.04,705.361L1335.9,705.121L1335.76,704.881L1335.62,704.64L1335.47,704.398L1335.33,704.155L1335.18,703.912L1335.04,703.668L1334.89,703.423L1334.74,703.178L1334.59,702.931L1334.43,702.684L1334.28,702.436L1334.12,702.188L1333.97,701.938L1333.81,701.688L1333.65,701.437L1333.49,701.186L1333.33,700.933L1333.16,700.68L1333,700.426L1332.83,700.172L1332.66,699.917L1332.49,699.66L1332.15,699.146L1331.8,698.628L1331.44,698.108L1245.29,567.117L1168.81,567.117Z" style="fill:rgb(221,221,221);"/>
        <path d="M1784.96,385.276L1964.44,854.102L2144.77,385.251L2160.47,374.469L2279.15,374.469L2295.97,391.29L2295.97,1006.68L2279.15,1023.5L2205.3,1023.5L2188.48,1006.68L2188.48,543.832L2008.26,1012.72L1992.56,1023.5L1936.29,1023.5L1920.71,1013.02L1918.18,1006.82L1915.67,1000.62L1913.15,994.436L1910.65,988.263L1908.16,982.102L1905.67,975.952L1903.19,969.815L1900.72,963.69L1898.25,957.577L1895.8,951.476L1893.35,945.387L1890.91,939.31L1888.47,933.245L1886.05,927.192L1883.63,921.151L1881.22,915.122L1878.82,909.105L1876.42,903.099L1874.03,897.106L1871.65,891.125L1869.28,885.156L1866.92,879.199L1864.56,873.254L1862.21,867.32L1859.87,861.399L1857.54,855.49L1855.21,849.592L1852.9,843.707L1850.59,837.834L1848.28,831.973L1845.99,826.123L1843.7,820.287L1841.43,814.488L1839.19,808.748L1836.97,803.068L1834.77,797.446L1832.6,791.884L1830.46,786.381L1828.34,780.938L1826.24,775.553L1824.17,770.228L1822.13,764.961L1820.11,759.754L1818.11,754.606L1816.14,749.517L1814.19,744.487L1812.27,739.516L1810.38,734.604L1808.5,729.752L1806.66,724.958L1804.84,720.224L1803.04,715.548L1801.27,710.932L1799.52,706.375L1797.8,701.877L1796.1,697.438L1794.42,693.057L1792.78,688.736L1791.15,684.475L1789.56,680.272L1787.98,676.128L1786.43,672.043L1784.91,668.017L1783.41,664.051L1781.93,660.132L1780.46,656.244L1779.01,652.385L1777.57,648.554L1776.13,644.753L1774.72,640.981L1773.31,637.239L1771.91,633.525L1770.53,629.84L1769.16,626.185L1767.8,622.559L1766.45,618.962L1765.12,615.394L1763.8,611.855L1762.49,608.345L1761.19,604.864L1759.9,601.413L1758.63,597.99L1757.36,594.597L1756.11,591.233L1754.87,587.898L1753.64,584.592L1752.43,581.315L1751.23,578.067L1750.04,574.848L1748.86,571.658L1747.69,568.498L1746.54,565.366L1745.39,562.264L1744.26,559.191L1743.14,556.147L1742.04,553.133L1740.36,548.569L1740.36,1006.68L1723.54,1023.5L1649.69,1023.5L1632.87,1006.68L1632.87,391.29L1649.69,374.469L1769.26,374.469L1784.96,385.276ZM1649.69,391.29L1649.69,1006.68L1723.54,1006.68L1723.54,487.116L1723.54,486.786L1723.54,486.456L1723.54,486.127L1723.53,485.797L1723.53,485.467L1723.53,485.137L1723.52,484.808L1723.52,484.478L1723.51,484.148L1723.5,483.819L1723.49,483.489L1723.49,483.159L1723.48,482.83L1723.47,482.5L1723.45,482.17L1723.44,481.841L1723.43,481.511L1723.42,481.181L1723.4,480.852L1723.39,480.522L1723.37,480.192L1723.36,479.863L1723.34,479.533L1723.32,479.203L1723.29,478.544L1723.25,477.885L1723.2,477.225L1723.15,476.566L1723.11,475.907L1723.05,475.247L1723,474.588L1722.94,473.928L1722.88,473.269L1722.81,472.61L1722.75,471.95L1722.67,471.291L1722.6,470.632L1722.52,469.972L1722.44,469.313L1722.36,468.654L1722.28,467.994L1722.19,467.335L1722.1,466.676L1722,466.016L1721.9,465.357L1721.8,464.698L1721.7,464.038L1721.59,463.379L1721.48,462.72L1721.37,462.06L1721.25,461.401L1721.14,460.741L1721.01,460.082L1720.89,459.423L1720.76,458.763L1720.63,458.104L1720.5,457.445L1720.36,456.785L1720.22,456.126L1720.08,455.467L1719.93,454.807L1719.78,454.148L1719.63,453.489L1719.48,452.829L1719.32,452.17L1719.16,451.511L1719,450.851L1718.83,450.192L1718.66,449.532L1718.49,448.873L1718.31,448.214L1718.13,447.554L1717.95,446.895L1717.76,446.236L1717.58,445.576L1717.38,444.917L1720.02,444.038L1720.09,444.226L1720.17,444.46L1720.27,444.741L1720.38,445.068L1720.66,445.861L1721.01,446.84L1721.43,448.004L1721.92,449.354L1722.48,450.889L1723.1,452.609L1723.79,454.515L1724.56,456.607L1725.39,458.884L1726.29,461.346L1727.26,463.994L1728.29,466.827L1730.57,473.049L1735.9,487.583L1742.22,504.808L1749.53,524.726L1757.83,547.336L1758.93,550.345L1760.05,553.384L1761.18,556.451L1762.32,559.548L1763.47,562.674L1764.64,565.829L1765.81,569.013L1767,572.227L1768.2,575.469L1769.42,578.741L1770.64,582.042L1771.88,585.373L1773.13,588.732L1774.39,592.121L1775.66,595.538L1776.95,598.985L1778.24,602.462L1779.55,605.967L1780.88,609.502L1782.21,613.065L1783.55,616.658L1784.91,620.28L1786.28,623.932L1787.66,627.612L1789.06,631.322L1790.46,635.061L1791.88,638.829L1793.31,642.626L1794.75,646.453L1796.2,650.308L1797.67,654.193L1799.14,658.107L1800.64,662.066L1802.16,666.083L1803.71,670.16L1805.28,674.296L1806.87,678.491L1808.49,682.745L1810.14,687.059L1811.81,691.432L1813.51,695.864L1815.23,700.356L1816.97,704.906L1818.74,709.516L1820.54,714.185L1822.36,718.914L1824.2,723.701L1826.07,728.548L1827.96,733.454L1829.88,738.419L1831.83,743.444L1833.8,748.528L1835.79,753.671L1837.81,758.873L1839.85,764.135L1841.92,769.455L1844.01,774.835L1846.13,780.275L1848.28,785.773L1850.44,791.331L1852.64,796.948L1854.86,802.624L1857.1,808.359L1859.37,814.154L1861.65,819.984L1863.94,825.826L1866.24,831.681L1868.55,837.547L1870.86,843.425L1873.19,849.316L1875.52,855.218L1877.86,861.133L1880.2,867.059L1882.56,872.998L1884.92,878.948L1887.29,884.91L1889.66,890.885L1892.05,896.872L1894.44,902.87L1896.84,908.881L1899.25,914.903L1901.66,920.938L1904.09,926.984L1906.52,933.043L1908.95,939.114L1911.4,945.196L1913.86,951.291L1916.32,957.398L1918.79,963.517L1921.26,969.647L1923.75,975.79L1926.24,981.945L1928.74,988.112L1931.25,994.291L1933.77,1000.48L1936.29,1006.68L1992.56,1006.68L2208.82,444.038L2211.46,444.917L2211.27,445.576L2211.08,446.236L2210.9,446.895L2210.71,447.554L2210.53,448.214L2210.36,448.873L2210.19,449.532L2210.02,450.192L2209.85,450.851L2209.69,451.511L2209.53,452.17L2209.37,452.829L2209.21,453.489L2209.06,454.148L2208.91,454.807L2208.77,455.467L2208.62,456.126L2208.49,456.785L2208.35,457.445L2208.21,458.104L2208.08,458.763L2207.96,459.423L2207.83,460.082L2207.71,460.741L2207.59,461.401L2207.47,462.06L2207.36,462.72L2207.25,463.379L2207.15,464.038L2207.04,464.698L2206.94,465.357L2206.84,466.016L2206.75,466.676L2206.66,467.335L2206.57,467.994L2206.48,468.654L2206.4,469.313L2206.32,469.972L2206.24,470.632L2206.17,471.291L2206.1,471.95L2206.03,472.61L2205.97,473.269L2205.91,473.928L2205.85,474.588L2205.79,475.247L2205.74,475.907L2205.69,476.566L2205.64,477.225L2205.6,477.885L2205.56,478.544L2205.52,479.203L2205.5,479.533L2205.49,479.863L2205.47,480.192L2205.46,480.522L2205.44,480.852L2205.43,481.181L2205.41,481.511L2205.4,481.841L2205.39,482.17L2205.38,482.5L2205.37,482.83L2205.36,483.159L2205.35,483.489L2205.34,483.819L2205.34,484.148L2205.33,484.478L2205.32,484.808L2205.32,485.137L2205.32,485.467L2205.31,485.797L2205.31,486.127L2205.31,486.456L2205.31,486.786L2205.31,487.116L2205.31,1006.68L2279.15,1006.68L2279.15,391.29L2160.47,391.29L1971.46,882.726L1971.29,883.192L1971.13,883.655L1970.97,884.116L1970.82,884.574L1970.66,885.029L1970.51,885.482L1970.37,885.933L1970.22,886.38L1970.08,886.825L1969.94,887.268L1969.8,887.708L1969.66,888.145L1969.53,888.58L1969.4,889.013L1969.27,889.442L1969.15,889.869L1969.03,890.294L1968.91,890.716L1968.79,891.135L1968.67,891.552L1968.56,891.966L1968.45,892.378L1968.35,892.787L1968.24,893.194L1968.14,893.598L1968.04,893.999L1967.94,894.398L1967.85,894.794L1967.76,895.188L1967.67,895.579L1967.58,895.967L1967.5,896.353L1967.42,896.736L1967.34,897.117L1967.26,897.495L1967.19,897.871L1967.12,898.244L1967.05,898.614L1966.99,898.982L1966.92,899.348L1966.86,899.71L1966.8,900.07L1966.75,900.428L1966.7,900.783L1966.65,901.135L1966.6,901.485L1966.55,901.833L1966.51,902.177L1966.47,902.519L1966.43,902.859L1966.4,903.196L1966.37,903.53L1966.34,903.862L1966.31,904.191L1966.29,904.518L1966.26,904.842L1966.24,905.164L1966.23,905.483L1966.21,905.799L1966.2,906.113L1966.19,906.424L1966.19,906.733L1966.18,907.039L1966.18,907.342L1962.66,907.342L1962.66,907.039L1962.66,906.733L1962.65,906.424L1962.64,906.113L1962.63,905.799L1962.62,905.483L1962.6,905.164L1962.58,904.842L1962.56,904.518L1962.54,904.191L1962.51,903.862L1962.48,903.53L1962.45,903.196L1962.41,902.859L1962.37,902.519L1962.34,902.177L1962.29,901.833L1962.25,901.485L1962.2,901.135L1962.15,900.783L1962.1,900.428L1962.04,900.07L1961.98,899.71L1961.92,899.348L1961.86,898.982L1961.79,898.614L1961.73,898.244L1961.65,897.871L1961.58,897.495L1961.51,897.117L1961.43,896.736L1961.35,896.353L1961.26,895.967L1961.18,895.579L1961.09,895.188L1961,894.794L1960.9,894.398L1960.81,893.999L1960.7,893.598L1960.6,893.194L1960.5,892.787L1960.39,892.378L1960.28,891.966L1960.17,891.552L1960.06,891.135L1959.94,890.716L1959.82,890.294L1959.7,889.869L1959.57,889.442L1959.44,889.013L1959.32,888.58L1959.18,888.145L1959.05,887.708L1958.91,887.268L1958.77,886.825L1958.63,886.38L1958.48,885.933L1958.33,885.482L1958.18,885.029L1958.03,884.574L1957.87,884.116L1957.71,883.655L1957.55,883.192L1957.39,882.726L1769.25,391.29L1649.69,391.29Z" style="fill:rgb(221,221,221);"/>
    </g>
</svg>
